<svg width="325" height="540" viewBox="0 0 325 540" fill="none" xmlns="http://www.w3.org/2000/svg">
<g clip-path="url(#clip0_1113_967)">
<rect x="-5.72058" y="-7.30566" width="330.699" height="549.468" fill="white"/>
<path d="M188.496 117.851H-96.2811L-11.6937 490.282H273.084L188.496 117.851Z" fill="#FF8C8C"/>
<path d="M118.97 180.366H-88.1408L-26.6227 450.379H180.488L118.97 180.366Z" fill="#A81A1A"/>
<path d="M108.523 196.328H-116.632L-49.7542 490.282H175.401L108.523 196.328Z" fill="#FF8C8C"/>
<path d="M87.1547 230.91H-138L-71.1223 524.865H154.032L87.1547 230.91Z" fill="#A81A1A"/>
<circle cx="237.979" cy="101.062" r="173.49" fill="#8CC8FF"/>
<circle cx="237.979" cy="101.062" r="160.756" fill="white"/>
<circle cx="237.979" cy="101.062" r="148.023" fill="#8CC8FF"/>
<circle cx="237.979" cy="101.062" r="66.8492" fill="#1A53A8"/>
<circle cx="237.979" cy="101.062" r="55.7077" fill="white"/>
<circle cx="237.979" cy="101.062" r="46.1578" fill="#1A53A8"/>
<rect x="-83.0981" y="470.073" width="443.539" height="40.3217" transform="rotate(-20.4296 -83.0981 470.073)" fill="#DA8CFF"/>
<rect x="8.50403" y="599.999" width="443.539" height="57.4982" transform="rotate(-20.4296 8.50403 599.999)" fill="#DA8CFF"/>
<rect x="-87.8201" y="505.602" width="443.539" height="40.3217" transform="rotate(-20.4296 -87.8201 505.602)" fill="#A81A1A"/>
<rect x="-34.0578" y="579.838" width="443.539" height="40.3217" transform="rotate(-20.4296 -34.0578 579.838)" fill="#A81A1A"/>
<rect x="-86.9906" y="541.869" width="443.539" height="40.3217" transform="rotate(-20.4296 -86.9906 541.869)" fill="#DA8CFF"/>
<rect x="-61.3766" y="553.182" width="443.539" height="40.3217" transform="rotate(-20.4296 -61.3766 553.182)" fill="white"/>
<rect x="-51.0817" y="569.239" width="443.539" height="40.3217" transform="rotate(-20.4296 -51.0817 569.239)" fill="#DA8CFF"/>
<g clip-path="url(#clip1_1113_967)">
<path d="M218.911 205H108V315.346H218.911V205Z" fill="#111827"/>
<path d="M137.554 237.328V237.272C139.785 237.272 141.925 236.39 143.503 234.82C145.081 233.25 145.968 231.121 145.968 228.901C145.968 226.681 145.081 224.552 143.503 222.982C141.925 221.412 139.785 220.53 137.554 220.53V220.42H123.948V257.289H137.554C140.214 257.289 142.766 256.238 144.647 254.366C146.529 252.494 147.586 249.956 147.586 247.309C147.586 244.662 146.529 242.123 144.647 240.251C142.766 238.379 140.214 237.328 137.554 237.328Z" fill="white"/>
<path d="M155.417 269.229V220.311H150.679V273.906H155.417H176.674V269.229H155.417Z" fill="white"/>
<path d="M197.801 220.311V240.084H182.934V229.996H178.186V240.084H163.456V220.311H158.681V240.084V244.852H163.456H178.186H182.934H197.801H202.578V240.084V220.311H197.801Z" fill="white"/>
<path d="M158.681 266.009V248.072H163.456L171.9 258.856V248.072H176.674V266.009H171.954L163.456 255.281V266.009H158.681Z" fill="white"/>
<path d="M183.625 248.229C182.772 248.124 181.914 248.072 181.054 248.072C180.599 248.072 180.146 248.089 179.698 248.117V292.057C180.146 292.085 180.599 292.102 181.054 292.102C181.914 292.102 182.772 292.05 183.625 291.945C194.298 290.652 202.578 281.356 202.578 270.087C202.578 258.817 194.298 249.528 183.625 248.229Z" fill="white"/>
<path d="M142.807 260.645V295.311H128.538V260.645H123.948V295.311V299.99H128.538H142.807H147.397V295.311V260.645H142.807Z" fill="#9CA3AF"/>
<path d="M176.67 295.275V277.199H150.675V299.979H202.578V295.275H176.67ZM171.876 295.275H155.412V281.912H171.876V295.275Z" fill="#9CA3AF"/>
<path d="M109.629 318.892V326.553H108.978V318.892H109.629ZM113.215 322.417V322.975H109.412V322.417H113.215ZM113.749 318.892V319.45H109.412V318.892H113.749ZM128.847 326.001V326.553H124.516V326.001H128.847ZM124.711 318.892V326.553H124.061V318.892H124.711ZM128.308 322.328V322.88H124.516V322.328H128.308ZM128.821 318.892V319.45H124.516V318.892H128.821ZM143.575 324.669C143.575 324.459 143.54 324.271 143.469 324.106C143.399 323.941 143.283 323.794 143.12 323.664C142.962 323.531 142.747 323.408 142.475 323.296C142.207 323.18 141.872 323.066 141.47 322.954C141.086 322.845 140.739 322.726 140.428 322.596C140.118 322.466 139.852 322.317 139.63 322.149C139.411 321.981 139.244 321.784 139.127 321.56C139.011 321.332 138.953 321.067 138.953 320.765C138.953 320.47 139.016 320.202 139.143 319.96C139.27 319.718 139.448 319.509 139.677 319.334C139.91 319.159 140.183 319.023 140.497 318.929C140.814 318.834 141.162 318.787 141.539 318.787C142.078 318.787 142.544 318.888 142.935 319.092C143.33 319.295 143.635 319.571 143.85 319.918C144.069 320.262 144.178 320.648 144.178 321.076H143.528C143.528 320.742 143.448 320.446 143.289 320.186C143.134 319.923 142.909 319.718 142.613 319.571C142.32 319.42 141.962 319.344 141.539 319.344C141.116 319.344 140.76 319.409 140.471 319.539C140.185 319.665 139.968 319.835 139.82 320.049C139.676 320.26 139.603 320.495 139.603 320.755C139.603 320.937 139.639 321.105 139.709 321.26C139.78 321.41 139.894 321.553 140.053 321.686C140.215 321.816 140.428 321.938 140.693 322.054C140.957 322.167 141.283 322.273 141.671 322.375C142.08 322.487 142.443 322.612 142.761 322.749C143.078 322.885 143.346 323.043 143.565 323.222C143.783 323.398 143.949 323.603 144.062 323.838C144.175 324.073 144.231 324.346 144.231 324.659C144.231 324.971 144.164 325.252 144.03 325.501C143.899 325.746 143.714 325.955 143.475 326.127C143.238 326.299 142.958 326.43 142.634 326.522C142.313 326.613 141.962 326.658 141.581 326.658C141.239 326.658 140.899 326.614 140.561 326.527C140.222 326.439 139.912 326.304 139.63 326.122C139.351 325.936 139.127 325.697 138.958 325.406C138.792 325.115 138.71 324.767 138.71 324.364H139.355C139.355 324.687 139.42 324.959 139.55 325.18C139.681 325.401 139.854 325.579 140.069 325.716C140.287 325.853 140.527 325.953 140.788 326.016C141.052 326.076 141.317 326.106 141.581 326.106C141.987 326.106 142.338 326.046 142.634 325.927C142.933 325.807 143.164 325.641 143.327 325.427C143.492 325.209 143.575 324.957 143.575 324.669ZM157.208 318.892V326.553H156.563V318.892H157.208ZM159.848 318.892V319.45H153.929V318.892H159.848ZM170.884 318.892V326.553H170.234V318.892H170.884ZM184.374 325.601L186.802 318.892H187.511L184.644 326.553H184.121L184.374 325.601ZM181.868 318.892L184.285 325.601L184.549 326.553H184.02L181.159 318.892H181.868ZM199.769 319.35L197.104 326.553H196.427L199.335 318.892H199.806L199.769 319.35ZM202.191 326.553L199.52 319.35L199.483 318.892H199.954L202.868 326.553H202.191ZM201.715 323.848V324.406H197.627V323.848H201.715ZM217.454 326.001V326.553H213.461V326.001H217.454ZM213.651 318.892V326.553H213V318.892H213.651Z" fill="#111827"/>
</g>
</g>
<defs>
<clipPath id="clip0_1113_967">
<rect width="325" height="540" fill="white"/>
</clipPath>
<clipPath id="clip1_1113_967">
<rect width="110.911" height="124.139" fill="white" transform="translate(108 205)"/>
</clipPath>
</defs>
</svg>
