<svg width="109" height="109" viewBox="0 0 109 109" fill="none" xmlns="http://www.w3.org/2000/svg">
<path d="M109 0H0V108.444H109V0Z" fill="black"/>
<path d="M29.0446 31.7708V31.7157C31.2376 31.7157 33.3407 30.849 34.8914 29.3062C36.4421 27.7634 37.3133 25.671 37.3133 23.4892C37.3133 21.3074 36.4421 19.215 34.8914 17.6722C33.3407 16.1294 31.2376 15.2627 29.0446 15.2627V15.1547H15.673V51.3882H29.0446C31.6593 51.3882 34.167 50.3548 36.0159 48.5153C37.8649 46.6758 38.9036 44.1809 38.9036 41.5795C38.9036 38.9781 37.8649 36.4833 36.0159 34.6437C34.167 32.8042 31.6593 31.7708 29.0446 31.7708Z" fill="white"/>
<path d="M46.5996 63.1223V15.0467H41.9437V67.7185H46.5996H67.4906V63.1223H46.5996Z" fill="white"/>
<path d="M88.2538 15.0467V34.4798H73.6431V24.5652H68.9765V34.4798H54.5V15.0467H49.8079V34.4798V39.165H54.5H68.9765H73.6431H88.2538H92.948V34.4798V15.0467H88.2538Z" fill="white"/>
<path d="M49.8079 59.9579V42.3293H54.5L62.7984 52.9281V42.3293H67.4906V59.9579H62.8517L54.5 49.4142V59.9579H49.8079Z" fill="white"/>
<path d="M74.3222 42.484C73.4839 42.381 72.64 42.3293 71.7952 42.3293C71.3481 42.3293 70.9032 42.3463 70.4625 42.3738V85.5567C70.9032 85.5843 71.3481 85.6012 71.7952 85.6012C72.64 85.6012 73.4839 85.5495 74.3222 85.4466C84.8113 84.1758 92.948 75.0406 92.948 63.9653C92.948 52.89 84.8113 43.7612 74.3222 42.484Z" fill="white"/>
<path d="M34.2072 54.6861V88.755H20.1841V54.6861H15.673V88.755V93.3533H20.1841H34.2072H38.7184V88.755V54.6861H34.2072Z" fill="#ADADAD"/>
<path d="M67.4863 88.719V70.9548H41.9395V93.3427H92.9481V88.719H67.4863ZM62.7751 88.719H46.5954V75.587H62.7751V88.719Z" fill="#ADADAD"/>
</svg>
